<?xml version="1.0" standalone="no"?><!DOCTYPE svg PUBLIC "-//W3C//DTD SVG 1.1//EN" "http://www.w3.org/Graphics/SVG/1.1/DTD/svg11.dtd"><svg t="1589762150792" class="icon" viewBox="0 0 1024 1024" version="1.1" xmlns="http://www.w3.org/2000/svg" p-id="1142" xmlns:xlink="http://www.w3.org/1999/xlink" width="200" height="200"><defs><style type="text/css"></style></defs><path d="M160 64a96 96 0 0 0-96 96v224a96 96 0 0 0 96 96h224a96 96 0 0 0 96-96V160a96 96 0 0 0-96-96H160zM160 544a96 96 0 0 0-96 96v224a96 96 0 0 0 96 96h224a96 96 0 0 0 96-96v-224a96 96 0 0 0-96-96H160zM544 640a96 96 0 0 1 96-96h224a96 96 0 0 1 96 96v224a96 96 0 0 1-96 96h-224a96 96 0 0 1-96-96v-224zM640 64a96 96 0 0 0-96 96v224a96 96 0 0 0 96 96h224a96 96 0 0 0 96-96V160a96 96 0 0 0-96-96h-224z" p-id="1143"></path></svg>